<?xml version="1.0" encoding="UTF-8"?>
<svg version="1.1" xmlns="http://www.w3.org/2000/svg" width="512" height="512">
<path d="M0 0 C1.5778125 1.15242188 1.5778125 1.15242188 3.1875 2.328125 C10.90580459 8.0686069 18.05360488 14.35093817 25 21 C25.55300781 21.52045898 26.10601562 22.04091797 26.67578125 22.57714844 C52.36651245 46.83256227 52.36651245 46.83256227 54.6875 58.4375 C54.50837614 64.57249229 50.09232911 68.91906623 46.33398438 73.40576172 C45.0399815 74.9522183 43.77721025 76.52464193 42.515625 78.09765625 C31.24546566 92.00113167 18.47343414 104.47347943 4 115 C2.94425781 115.77730469 1.88851563 116.55460938 0.80078125 117.35546875 C-43.52348677 149.03123716 -98.76755798 161.8292175 -152.55615234 153.609375 C-195.18020642 146.46817222 -233.84813087 126.87409771 -265 97 C-265.53125488 96.49597656 -266.06250977 95.99195313 -266.60986328 95.47265625 C-274.38115176 88.06835169 -281.41036297 80.31052198 -287.765625 71.64941406 C-288.61760125 70.51097428 -289.50595368 69.39918 -290.421875 68.31152344 C-293.38179669 64.63864308 -294.83443442 61.80209805 -294.49804688 57.01318359 C-293.54023222 53.14154653 -291.23240198 50.35913609 -288.75 47.3125 C-288.20786865 46.62115967 -287.6657373 45.92981934 -287.10717773 45.2175293 C-282.21074204 39.06142378 -277.00162303 33.21985086 -271.52539062 27.57666016 C-269.98603068 25.98556116 -268.46963203 24.37458111 -266.953125 22.76171875 C-258.73113337 14.14642294 -249.68949548 6.90367774 -240 0 C-239.4220166 -0.4120166 -238.8440332 -0.8240332 -238.24853516 -1.24853516 C-209.99459446 -21.04907227 -176.31583843 -33.60395615 -142 -37 C-140.95199219 -37.11085937 -139.90398437 -37.22171875 -138.82421875 -37.3359375 C-90.57447626 -41.78236458 -39.2587859 -28.77490558 0 0 Z M-157 -14 C-157.77762695 -13.82839355 -158.55525391 -13.65678711 -159.35644531 -13.47998047 C-200.82516311 -4.0445402 -246.04381636 20.50378937 -270 57 C-270.02257833 61.29865638 -270.02257833 61.29865638 -267.54296875 64.28515625 C-267.01300293 64.89278809 -266.48303711 65.50041992 -265.93701172 66.12646484 C-265.35967285 66.76535645 -264.78233398 67.40424805 -264.1875 68.0625 C-263.59727051 68.72717285 -263.00704102 69.3918457 -262.39892578 70.07666016 C-245.81541081 88.59439859 -227.00932776 103.5020141 -205 115 C-203.26556641 115.90878906 -203.26556641 115.90878906 -201.49609375 116.8359375 C-183.68818787 125.63045638 -164.59525999 131.05708997 -145 134 C-143.81277344 134.19078125 -142.62554687 134.3815625 -141.40234375 134.578125 C-92.95504468 140.29584421 -43.37530843 125.80735591 -5 96 C7.52845359 86.06341848 21.20570707 74.50234874 30 61 C30.03096741 56.71975358 30.03096741 56.71975358 27.578125 53.75 C27.05355713 53.14768555 26.52898926 52.54537109 25.98852539 51.92480469 C25.41481201 51.28961914 24.84109863 50.65443359 24.25 50 C23.66017334 49.33645508 23.07034668 48.67291016 22.46264648 47.98925781 C12.78320158 37.19549254 2.72999295 27.55232385 -9 19 C-9.57556641 18.58008789 -10.15113281 18.16017578 -10.74414062 17.72753906 C-32.50039478 2.08794222 -56.90333157 -8.24099629 -83 -14 C-83.73637695 -14.16516113 -84.47275391 -14.33032227 -85.23144531 -14.50048828 C-107.93797498 -19.34327924 -134.37142306 -19.07533728 -157 -14 Z " fill="#F0ECE4" transform="translate(376,197)"/>
<path d="M0 0 C1.0098999 0.01087646 2.0197998 0.02175293 3.06030273 0.03295898 C21.28186531 0.42259136 36.61155129 7.53699561 49.5625 20.375 C64.27076042 37.31931352 67.97067864 55.56760966 66.5625 77.375 C64.68133079 92.96667274 55.62015323 107.51263825 43.8984375 117.6875 C26.24233479 131.12038506 7.68393078 134.56139002 -14.03125 131.94140625 C-30.52704627 128.37175141 -45.27936487 118.11959656 -54.69140625 104.2265625 C-62.055857 92.19960714 -66.02858246 80.8502463 -65.9375 66.6875 C-65.93177979 65.64239258 -65.92605957 64.59728516 -65.92016602 63.52050781 C-65.52289498 46.13689024 -58.8103555 31.28774862 -46.8125 18.62109375 C-33.94498351 6.45197865 -17.64408073 -0.25975554 0 0 Z M-37.81640625 31.37890625 C-48.98165716 45.1269622 -52.12988581 59.01045502 -50.4375 76.375 C-48.03871719 89.33410474 -40.16102931 100.939174 -29.45703125 108.47265625 C-15.66892785 117.37915681 -2.07043602 119.69448989 14.13671875 116.71875 C29.27592662 112.1275131 40.16344913 102.07423279 47.5625 88.375 C53.234615 76.96403924 53.66231065 61.9726397 50 49.8125 C44.01833874 34.90047123 34.1273889 25.12362899 19.890625 18.046875 C0.11614243 10.11473792 -23.44243521 15.90189667 -37.81640625 31.37890625 Z " fill="#F0ECE4" transform="translate(255.4375,189.625)"/>
<path d="M0 0 C6.01194752 4.33366007 9.19332818 9.86952601 11 17 C12.21952206 25.08404829 10.30712636 32.41212974 5.52734375 39.04296875 C0.63982498 44.46199075 -5.32727622 47.29509455 -12.51171875 48.37890625 C-20.57767803 48.77144116 -27.85891303 46.30102301 -33.875 40.875 C-39.30102301 34.85891303 -41.77144116 27.57767803 -41.37890625 19.51171875 C-40.29509455 12.32727622 -37.46199075 6.36017502 -32.04296875 1.47265625 C-22.02371033 -5.74963902 -10.6422469 -6.02762555 0 0 Z " fill="#E05A5A" transform="translate(271,234)"/>
</svg>
